<svg width="1285" height="1056" viewBox="0 0 1285 1056" fill="none" xmlns="http://www.w3.org/2000/svg">
<path d="M604.637 1H363.792C235.611 1 116.943 68.6392 51.6266 178.931C6.74758 254.712 -9.03231 344.231 7.2303 430.79L31.4789 559.856C39.7086 603.659 37.4192 648.79 24.7991 691.535L9.33595 743.91C-7.73526 801.732 5.312 864.262 44.082 910.432C80.8158 954.177 136.152 977.862 193.16 974.241L321.054 966.118C379.414 962.411 437.921 970.553 493.052 990.053L617.349 1034.02C728.325 1073.27 851.388 1057.01 948.36 990.28L1012.57 946.094C1032.06 932.681 1055.17 925.5 1078.83 925.5H1102.13C1172.77 925.5 1221.51 854.739 1196.33 788.737C1182.92 753.57 1190.21 713.859 1215.24 685.75L1236.13 662.291C1256.88 638.992 1269.98 609.891 1273.67 578.913L1281.41 514.025C1292.68 419.53 1266.12 324.413 1207.54 249.416L1189.91 226.848C1134.38 155.754 1057.9 103.926 971.282 78.7002L800.379 28.9248C736.782 10.402 670.877 1 604.637 1Z" stroke="black"/>
</svg>
